<svg xmlns="http://www.w3.org/2000/svg" xmlns:xlink="http://www.w3.org/1999/xlink" width="1315" height="184" viewBox="0 0 1315 184"><defs><style>.a{fill:#fff;}.b{clip-path:url(#a);}.c{fill:url(#b);}</style><clipPath id="a"><rect class="a" width="184" height="1315" transform="translate(250)"/></clipPath><linearGradient id="b" x1="0.624" y1="0.325" x2="1.061" y2="0.147" gradientUnits="objectBoundingBox"><stop offset="0" stop-color="#c2e8fa"/><stop offset="1" stop-color="#a4c7fb"/></linearGradient></defs><g class="b" transform="translate(0 434) rotate(-90)"><path class="c" d="M399.006,704.882c-77.867-10.989-156.481-34.049-212.407-72.6-65.079-44.838-91.52-104.107-110.977-160.552a1195.516,1195.516,0,0,1-50.3-199.065C13.428,198.428,12.76,117.467,87.6,66.73c63.991-43.286,171.01-54.448,272.926-46.976s202.348,31.14,303.231,49.3a2843.332,2843.332,0,0,0,475.518,44.9c69.5.628,139.079-1.313,209.135,6.871s142.27,28,190.477,63.623c45.433,33.541,64.024,76.559,76.329,117.626,32.275,106.932,33.744,214.761,4.528,316.611-10.082,35.154-24.128,70.027-51.553,100.057s-69.591,55.075-124.08,64.849c-57.754,10.368-123.292,2.879-186.243-4.661-153.92-8.371-317.047-37.828-471.122-56.243C654.885,707.026,531.336,723.529,399.006,704.882Z" transform="translate(366.277 -200.037) rotate(82)"/></g></svg>