<svg xmlns="http://www.w3.org/2000/svg" xmlns:xlink="http://www.w3.org/1999/xlink" width="452" height="269" viewBox="0 0 452 269"><defs><style>.a{fill:#fff;}.b,.e{fill:#343434;}.b{font-size:16px;font-family:TitilliumWeb-Bold, Titillium Web;font-weight:700;}.c,.j,.l{fill:none;}.c{stroke:#e8e8e8;}.d{fill:#707070;}.d,.e,.g{font-size:14px;font-family:TitilliumWeb-Regular, Titillium Web;}.f{fill:#fedc7e;}.g{fill:#a9a99d;}.h{fill:#c2facf;}.i{fill:#5ed479;}.j{stroke:#707070;}.k{stroke:none;}.m{filter:url(#a);}</style><filter id="a" x="0" y="0" width="452" height="269" filterUnits="userSpaceOnUse"><feOffset dy="3" input="SourceAlpha"/><feGaussianBlur stdDeviation="3" result="b"/><feFlood flood-color="#54533b" flood-opacity="0.102"/><feComposite operator="in" in2="b"/><feComposite in="SourceGraphic"/></filter></defs><g transform="translate(-135 -2071)"><g class="m" transform="matrix(1, 0, 0, 1, 135, 2071)"><rect class="a" width="434" height="251" rx="10" transform="translate(9 6)"/></g><text class="b" transform="translate(165 2114)"><tspan x="0" y="0">When do you want to tweet about this video?</tspan></text><g class="c" transform="translate(295 2196)"><rect class="k" width="135" height="32" rx="8"/><rect class="l" x="0.5" y="0.5" width="134" height="31" rx="7.5"/></g><text class="d" transform="translate(182 2177)"><tspan x="0" y="0">1 Hour Before </tspan></text><text class="d" transform="translate(178 2295)"><tspan x="0" y="0">1</tspan></text><text class="d" transform="translate(288 2295)"><tspan x="0" y="0">Week</tspan></text><text class="d" transform="translate(389 2295)"><tspan x="0" y="0">Before posting the video.</tspan></text><text class="d" transform="translate(197 2217)"><tspan x="0" y="0">1 Day Before</tspan></text><text class="d" transform="translate(307 2177)"><tspan x="0" y="0">2 Hours Before</tspan></text><text class="e" transform="translate(324 2217)"><tspan x="0" y="0">2 Days Before</tspan></text><text class="d" transform="translate(449 2177)"><tspan x="0" y="0">3 Hours Before</tspan></text><text class="d" transform="translate(454 2217)"><tspan x="0" y="0">3 Days Before</tspan></text><g class="c" transform="translate(165 2156)"><rect class="k" width="118" height="32" rx="8"/><rect class="l" x="0.5" y="0.5" width="117" height="31" rx="7.5"/></g><g class="c" transform="translate(165 2274)"><rect class="k" width="102" height="32" rx="8"/><rect class="l" x="0.5" y="0.5" width="101" height="31" rx="7.5"/></g><g class="c" transform="translate(275 2274)"><rect class="k" width="102" height="32" rx="8"/><rect class="l" x="0.5" y="0.5" width="101" height="31" rx="7.5"/></g><g class="c" transform="translate(165 2196)"><rect class="k" width="122" height="32" rx="8"/><rect class="l" x="0.5" y="0.5" width="121" height="31" rx="7.5"/></g><g class="c" transform="translate(291 2156)"><rect class="k" width="121" height="32" rx="8"/><rect class="l" x="0.5" y="0.5" width="120" height="31" rx="7.5"/></g><g class="c" transform="translate(420 2156)"><rect class="k" width="136" height="32" rx="8"/><rect class="l" x="0.5" y="0.5" width="135" height="31" rx="7.5"/></g><g class="c" transform="translate(438 2196)"><rect class="k" width="118" height="32" rx="8"/><rect class="l" x="0.5" y="0.5" width="117" height="31" rx="7.5"/></g><path class="f" d="M6.8.4,5.333,3.368l-3.277.478a.718.718,0,0,0-.4,1.225L4.03,7.381l-.561,3.264A.717.717,0,0,0,4.51,11.4L7.441,9.86,10.373,11.4a.718.718,0,0,0,1.041-.756l-.561-3.264,2.371-2.31a.718.718,0,0,0-.4-1.225L9.55,3.368,8.085.4A.718.718,0,0,0,6.8.4Z" transform="translate(428.52 2165.999)"/><path class="f" d="M6.8.4,5.333,3.368l-3.277.478a.718.718,0,0,0-.4,1.225L4.03,7.381l-.561,3.264A.717.717,0,0,0,4.51,11.4L7.441,9.86,10.373,11.4a.718.718,0,0,0,1.041-.756l-.561-3.264,2.371-2.31a.718.718,0,0,0-.4-1.225L9.55,3.368,8.085.4A.718.718,0,0,0,6.8.4Z" transform="translate(178.52 2205.999)"/><path class="f" d="M6.8.4,5.333,3.368l-3.277.478a.718.718,0,0,0-.4,1.225L4.03,7.381l-.561,3.264A.717.717,0,0,0,4.51,11.4L7.441,9.86,10.373,11.4a.718.718,0,0,0,1.041-.756l-.561-3.264,2.371-2.31a.718.718,0,0,0-.4-1.225L9.55,3.368,8.085.4A.718.718,0,0,0,6.8.4Z" transform="translate(305.52 2205.999)"/><text class="e" transform="translate(198 2259)"><tspan x="0" y="0">Custom</tspan></text><path class="f" d="M6.8.4,5.333,3.368l-3.277.478a.718.718,0,0,0-.4,1.225L4.03,7.381l-.561,3.264A.717.717,0,0,0,4.51,11.4L7.441,9.86,10.373,11.4a.718.718,0,0,0,1.041-.756l-.561-3.264,2.371-2.31a.718.718,0,0,0-.4-1.225L9.55,3.368,8.085.4A.718.718,0,0,0,6.8.4Z" transform="translate(163.52 2125.999)"/><text class="g" transform="translate(183 2136)"><tspan x="0" y="0">means best times to post your tweet</tspan></text><rect class="h" width="27" height="15" rx="7.5" transform="translate(165 2247)"/><circle class="i" cx="5.5" cy="5.5" r="5.5" transform="translate(179 2249)"/><path class="j" d="M21028.666,10180.5l3.467,3.466,3.465-3.466" transform="translate(-20782 -7892)"/><path class="j" d="M21028.666,10180.5l3.467,3.466,3.465-3.466" transform="translate(-20672 -7892)"/></g></svg>