<svg xmlns="http://www.w3.org/2000/svg" xmlns:xlink="http://www.w3.org/1999/xlink" width="1280" height="870" viewBox="0 0 1280 870"><defs><style>.a{fill:#fff;}.b{clip-path:url(#a);}.c{fill:url(#b);}</style><clipPath id="a"><rect class="a" width="870" height="1280" transform="translate(-151 23.053)"/></clipPath><linearGradient id="b" x1="0.563" y1="0.609" x2="0.388" y2="-0.161" gradientUnits="objectBoundingBox"><stop offset="0" stop-color="#f1f1f1"/><stop offset="1" stop-color="#d9d3d3"/></linearGradient></defs><g class="b" transform="translate(1303.053 151) rotate(90)"><path class="c" d="M399.085,912.252c-82.026-11.607-163.72-43.887-219.768-104.909C114.095,736.372,87.257,666.7,71.78,571.516c-18.13-111.653-80.465-281.9,4.1-376.087,72.3-80.368,187.488-109.552,295.493-106.236s212.914,34.6,318.818,56.379a1837.354,1837.354,0,0,0,502.99,32.722c74.067-5.417,148.465-15.256,222.421-7.739s149.128,34.822,197.216,91.533c45.324,53.394,61.133,125.582,70.419,195.005,24.431,180.745,62.445,44.888,21.763,222.648-14.039,61.354,11.6,97.764-20.462,151.932s-57.687,103.231-116.72,125.119c-36.315,7.631-150.822,7.295-219.9,7.317-163.389,0-374.328-40.25-536.943-57.5C671.8,892.022,538.485,931.93,399.085,912.252Z" transform="translate(709.591 -287.574) rotate(83)"/></g></svg>