<svg xmlns="http://www.w3.org/2000/svg" xmlns:xlink="http://www.w3.org/1999/xlink" width="1280" height="515" viewBox="0 0 1280 515"><defs><style>.a{fill:#fff;}.b{clip-path:url(#a);}.c{fill:url(#b);}</style><clipPath id="a"><rect class="a" width="515" height="1280" transform="translate(-176 23.053)"/></clipPath><linearGradient id="b" x1="0.563" y1="0.609" x2="0.792" y2="-0.676" gradientUnits="objectBoundingBox"><stop offset="0" stop-color="#c2e8fa"/><stop offset="1" stop-color="#a4c7fb"/></linearGradient></defs><g class="b" transform="translate(1303.053 176) rotate(90)"><path class="c" d="M413.315,930.809c-84.922-12.017-169.5-45.437-227.528-108.614C118.262,748.718,52.625,984.862,36.6,886.32c-18.77-115.6-93.055-212.451-5.5-309.963C105.952,493.152,225.21,462.936,337.028,466.37S557.46,502.193,667.1,524.74a1902.216,1902.216,0,0,0,520.748,33.878c76.682-5.608,153.707-15.794,230.274-8.012s154.394,36.052,204.18,94.765c46.925,55.28,73.041,50.612,82.655,122.487,25.293,187.128,64.65,46.473,22.532,230.509-14.535,63.52,8.756-212.109-24.434-156.029s-59.724,106.876-120.841,129.537c-37.6,7.9-156.148,7.552-227.661,7.575-169.158,0-346.441-36.624-514.8-54.479C695.665,909.865,557.638,951.182,413.315,930.809Z" transform="translate(705.591 -287.574) rotate(83)"/></g></svg>